<?xml version="1.0" standalone="no"?>
<!DOCTYPE svg PUBLIC "-//W3C//DTD SVG 1.1//EN" "http://www.w3.org/Graphics/SVG/1.1/DTD/svg11.dtd" >
<svg xmlns="http://www.w3.org/2000/svg">
<metadata></metadata>
<defs>
<font id="exo_2regular" horiz-adv-x="1167" >
<font-face units-per-em="2048" ascent="1638" descent="-410" />
<missing-glyph horiz-adv-x="456" />
<glyph horiz-adv-x="2048" />
<glyph horiz-adv-x="2048" />
<glyph unicode="&#xd;" horiz-adv-x="681" />
<glyph unicode=" "  horiz-adv-x="456" />
<glyph unicode="&#x09;" horiz-adv-x="456" />
<glyph unicode="&#xa0;" horiz-adv-x="456" />
<glyph unicode="!" horiz-adv-x="559" d="M193 797v626h174v-626l-17 -365h-139zM195 66v110q0 37 14 51.5t49 14.5h45q35 0 50.5 -14.5t15.5 -51.5v-110q0 -37 -15.5 -51.5t-50.5 -14.5h-45q-35 0 -49 14.5t-14 51.5z" />
<glyph unicode="&#x22;" horiz-adv-x="722" d="M143 1413h144l-13 -440h-120zM438 1413h142l-11 -440h-118z" />
<glyph unicode="#" horiz-adv-x="1402" d="M90 436l23 113h233l66 369h-236l23 112h231l68 383h139l-68 -383h375l68 383h139l-68 -383h228l-23 -112h-223l-66 -369h226l-23 -113h-221l-76 -436h-139l76 436h-375l-76 -436h-139l76 436h-238zM485 549h375l66 369h-375z" />
<glyph unicode="$" horiz-adv-x="1155" d="M117 1065q0 123 25.5 197.5t88 112.5t139 50.5t205.5 12.5h25l14 198h93l-15 -202q170 -6 303 -37l-12 -131q-166 8 -303 10l-35 -488l119 -30q158 -39 222.5 -133.5t64.5 -264.5q0 -233 -105.5 -309t-370.5 -76h-4l-18 -235h-94l18 237q-184 8 -340 37l13 138 q66 -2 142.5 -4.5t120.5 -3.5t79 -1l36 496l-131 33q-150 37 -215 132t-65 261zM299 1061q0 -113 40 -160t140 -72l74 -18l35 465h-4q-90 0 -133 -4t-84 -24.5t-54.5 -64.5t-13.5 -122zM584 143q166 0 224 42t58 180q0 117 -39 162.5t-139 70.5l-67 16z" />
<glyph unicode="%" horiz-adv-x="1830" d="M96 1020q0 227 74 323.5t254 96.5q182 0 256 -96.5t74 -323.5t-74 -323.5t-256 -96.5q-180 0 -254 96.5t-74 323.5zM229 1020q0 -172 42 -240.5t153 -68.5t152.5 67.5t41.5 241.5q0 172 -41.5 240.5t-152.5 68.5t-153 -68.5t-42 -240.5zM393 0l916 1413h123l-916 -1413 h-123zM1077 401q0 225 74 321.5t254 96.5t254 -96t74 -322q0 -227 -74 -323t-254 -96t-254 96t-74 323zM1210 401q-2 -174 40 -242.5t152.5 -68.5t153.5 68.5t43 242.5q0 172 -43 240t-153.5 68t-152.5 -67t-40 -241z" />
<glyph unicode="&#x26;" horiz-adv-x="1581" d="M137 358q0 170 63.5 264.5t213.5 106.5v8q-125 12 -180.5 93t-55.5 237q0 123 29 195.5t100.5 110.5t160.5 49.5t245 11.5q188 0 325 -21l-20 -133q-82 6 -311 6q-203 0 -275 -45t-72 -199q0 -141 59.5 -191t215.5 -50h385l16 262h146v-262h256v-137h-256v-396 q0 -72 29.5 -102.5t101.5 -30.5h151l21 -127q-92 -27 -217 -26q-213 0 -246 176q-90 -96 -198.5 -137t-272.5 -41q-225 0 -319.5 83.5t-94.5 294.5zM326 387q0 -143 57 -197.5t209 -54.5q270 2 426 162v367h-391q-170 0 -235.5 -58.5t-65.5 -218.5z" />
<glyph unicode="'" horiz-adv-x="428" d="M143 1413h144l-13 -440h-120z" />
<glyph unicode="(" horiz-adv-x="735" d="M111 639q0 397 129.5 635t408.5 344l23 -84q-203 -98 -297 -318.5t-94 -574.5q0 -694 391 -895l-23 -84q-279 106 -408.5 344t-129.5 633z" />
<glyph unicode=")" horiz-adv-x="735" d="M66 -254q201 104 295 325.5t94 569.5q0 354 -94 574.5t-295 318.5l20 84q279 -106 410 -343t131 -636q0 -395 -131 -632.5t-410 -344.5z" />
<glyph unicode="*" horiz-adv-x="921" d="M111 1130l34 101l242 -94v-45l-22 -29zM217 823l205 262l-14 330h106l-16 -330l204 -264l-84 -61l-157 252l-158 -250zM532 1092v45l246 94l35 -103l-256 -65z" />
<glyph unicode="+" horiz-adv-x="1128" d="M115 547v131h381v360h135v-360h381v-131h-383v-363h-133v363h-381z" />
<glyph unicode="," horiz-adv-x="466" d="M141 57v119q2 66 68 66h51q37 0 50.5 -14.5t13.5 -51.5v-131q-2 -174 -72 -315l-82 24q20 121 20 246q-49 0 -49 57z" />
<glyph unicode="-" horiz-adv-x="919" d="M147 451v133h625v-133h-625z" />
<glyph unicode="." horiz-adv-x="468" d="M139 66v110q0 37 15.5 51.5t50.5 14.5h57q37 0 51.5 -14.5t14.5 -51.5v-110q0 -37 -14.5 -51.5t-51.5 -14.5h-57q-35 0 -50.5 14.5t-15.5 51.5z" />
<glyph unicode="/" horiz-adv-x="1058" d="M55 -135l805 1548h144l-805 -1548h-144z" />
<glyph unicode="0" horiz-adv-x="1234" d="M131 706.5q0 393.5 108.5 563.5t377 170t378 -170t109.5 -563.5t-109.5 -563.5t-378 -170t-377 170t-108.5 563.5zM307 706.5q0 -317.5 67.5 -446.5t242 -129t243 129t68.5 446.5t-68.5 446.5t-243 129t-242 -129t-67.5 -446.5z" />
<glyph unicode="1" horiz-adv-x="815" d="M45 1268l361 145h180v-1413h-180v1120q0 72 10 123l-346 -108z" />
<glyph unicode="2" horiz-adv-x="1150" d="M113 0v113q0 49 26 77l410 463q139 150 200.5 261.5t57.5 209.5q-2 96 -64.5 125t-199.5 29q-205 0 -406 -33l-12 139q227 53 430 54q223 0 328.5 -62.5t105.5 -242.5q0 -133 -55 -245t-197 -270l-405 -452q96 8 229 8h479v-174h-927z" />
<glyph unicode="3" horiz-adv-x="1138" d="M106 10l13 146q231 -20 391 -21q172 0 243.5 61.5t71.5 215.5q0 129 -58 194.5t-222 65.5h-262v141h262q152 2 200 69.5t48 188.5q-2 129 -61.5 169t-227.5 40q-171 0 -359 -16l-14 139q209 37 397 37q238 0 337.5 -72t99.5 -256q0 -315 -207 -356v-8q131 -23 186 -111 t60 -244q4 -219 -99.5 -319.5t-349.5 -100.5q-190 0 -449 37z" />
<glyph unicode="4" horiz-adv-x="1259" d="M96 565l402 848h178l-395 -835q-16 -41 -1 -62.5t52 -21.5h485v415l31 234h139v-649h182v-129l-182 -19v-346h-170v346h-586q-86 0 -128 69.5t-7 149.5z" />
<glyph unicode="5" horiz-adv-x="1097" d="M106 27l21 145q207 -37 358 -37q188 0 253 67.5t69 221.5q2 66 -7 112t-39 77.5t-57.5 49t-96 30t-122 17.5t-161.5 11l-95 6q-31 4 -50 25.5t-17 54.5l33 606h747l-8 -153h-594l-21 -386l152 -12q283 -20 398.5 -116.5t113.5 -321.5q0 -74 -10 -134.5t-40 -120.5 t-79 -101t-132 -67t-196 -26q-197 0 -420 52z" />
<glyph unicode="6" horiz-adv-x="1171" d="M135 672q0 199 22.5 335t62.5 221t110.5 131t151.5 62.5t202 16.5q170 0 285 -31l-17 -131q-90 8 -268 8q-104 0 -166.5 -18.5t-110 -72.5t-68 -153.5t-24.5 -265.5q74 82 155 115t202 33q221 0 304 -102.5t83 -362.5q0 -119 -16.5 -200t-62.5 -148.5t-137 -100.5 t-231 -33q-123 0 -203.5 22.5t-136 68t-85 131.5t-41 196.5t-11.5 278.5zM313 645q0 -131 5.5 -207t21.5 -143.5t50 -99t87 -49t137 -17.5q170 0 221.5 76t51.5 252q0 178 -54.5 248.5t-207.5 70.5q-88 0 -157 -27.5t-155 -103.5z" />
<glyph unicode="7" horiz-adv-x="1048" d="M80 1413h799q63 0 87.5 -32.5t6.5 -92.5l-441 -1288h-180l398 1155q18 55 43 105h-705z" />
<glyph unicode="8" horiz-adv-x="1243" d="M141 352q0 176 53.5 270.5t180.5 106.5v8q-203 23 -203 324q0 201 95 287t355.5 86t354.5 -85t94 -288q0 -301 -201 -324v-8q127 -12 179.5 -106.5t52.5 -270.5q0 -201 -99.5 -285.5t-379.5 -86.5q-276 -2 -379 84t-103 288zM311 389q0 -145 63.5 -199.5t250.5 -54.5 q182 0 243.5 53.5t61.5 200.5q0 168 -58.5 220.5t-244.5 52.5q-193 -2 -254.5 -55.5t-61.5 -217.5zM338 1044q0 -145 56.5 -192t232.5 -47t228 47t52 192q0 141 -55 192.5t-227 51.5t-229.5 -51t-57.5 -193z" />
<glyph unicode="9" horiz-adv-x="1171" d="M113 952q0 252 102 369t350 117q104 0 177 -14.5t126.5 -51.5t84 -86t48 -136t23.5 -183.5t6 -243.5q0 -238 -28.5 -384t-99.5 -227t-166 -109t-253 -28q-178 0 -305 31l17 133q98 -8 288 -8q141 0 216 41t113 151.5t44 321.5q-76 -88 -157 -120.5t-203 -32.5 q-383 0 -383 460zM285 952q-2 -162 55.5 -239.5t202.5 -77.5q90 0 158.5 28.5t154.5 106.5q0 111 -3 177.5t-13.5 132t-28.5 98t-51 60.5t-80 37t-117 9q-166 0 -223 -80t-55 -252z" />
<glyph unicode=":" horiz-adv-x="483" d="M141 66v110q0 37 15.5 51.5t50.5 14.5h57q35 0 50.5 -14.5t15.5 -51.5v-110q0 -37 -15.5 -51.5t-50.5 -14.5h-57q-35 0 -50.5 14.5t-15.5 51.5zM141 725v113q0 35 15.5 49t50.5 14h57q35 0 50.5 -14.5t15.5 -48.5v-113q0 -37 -15.5 -51.5t-50.5 -14.5h-57 q-35 0 -50.5 14.5t-15.5 51.5z" />
<glyph unicode=";" horiz-adv-x="485" d="M152 57v119q2 37 17 51.5t50 14.5h51q37 0 50.5 -14.5t13.5 -51.5v-131q-2 -172 -70 -315l-84 24q20 121 21 246q-49 0 -49 57zM152 725v113q0 35 14 49t49 14h59q35 0 49.5 -14.5t14.5 -48.5v-113q0 -37 -14.5 -51.5t-49.5 -14.5h-59q-35 0 -49 14.5t-14 51.5z" />
<glyph unicode="&#x3c;" horiz-adv-x="1085" d="M109 541v139l831 356v-139l-680 -287l680 -280v-140z" />
<glyph unicode="=" horiz-adv-x="1198" d="M152 317v132h897v-132h-897zM152 752v129h897v-129h-897z" />
<glyph unicode="&#x3e;" horiz-adv-x="1085" d="M145 190v140l680 280l-680 287v139l832 -356v-139z" />
<glyph unicode="?" horiz-adv-x="1034" d="M82 1415q14 2 63.5 11.5t63.5 11.5t57 8t74 7t82 3t110 2q414 0 414 -317q0 -72 -26.5 -134.5t-67.5 -106.5t-88 -96t-88 -99.5t-71 -119t-32 -153.5h-149q-2 104 31.5 192.5t83 146.5t99.5 110.5t86 110t38 118.5q4 102 -60.5 151.5t-205.5 49.5q-175 -1 -404 -21z M412 66v110q0 37 14 51.5t49 14.5h47q35 0 49.5 -14.5t14.5 -51.5v-110q0 -37 -14.5 -51.5t-49.5 -14.5h-47q-35 0 -49 14.5t-14 51.5z" />
<glyph unicode="@" horiz-adv-x="1470" d="M154 545q0 156 6 249t28.5 173t56.5 118.5t103.5 67.5t152.5 36t220 9h293q154 0 231.5 -68.5t77.5 -222.5v-637h-131l-16 154q-63 -66 -177 -118t-231 -52q-123 0 -195.5 62.5t-72.5 181.5v104q0 100 60.5 155.5t174.5 55.5h424v88q0 84 -38 118t-138 34h-262 q-100 0 -153.5 -3t-106.5 -21.5t-74.5 -46.5t-40 -90.5t-23 -140t-4.5 -206.5q0 -100 2.5 -167t13.5 -125t21.5 -92t41 -61.5t57 -40t85 -20.5t107.5 -9t141 -1h529v-131q-279 -16 -526 -17q-154 -2 -248 5.5t-172 35t-115 67.5t-63.5 123t-32.5 178t-6 255zM664 528 q0 -135 135 -135q90 0 191.5 36t168.5 99v179l-364 -9q-72 -2 -101.5 -29.5t-29.5 -86.5v-54z" />
<glyph unicode="A" horiz-adv-x="1273" d="M20 0l455 1364q12 49 68 49h188q55 0 68 -49l454 -1364h-186l-139 442h-582l-139 -442h-187zM395 598h484l-179 561q-18 53 -34 115h-58l-35 -115z" />
<glyph unicode="B" horiz-adv-x="1269" d="M178 0v1413q162 16 459 17q264 0 367.5 -77t103.5 -292q0 -154 -57.5 -233t-182.5 -91v-8q154 -14 218.5 -107.5t64.5 -269.5q0 -213 -100.5 -290.5t-350.5 -77.5q-340 0 -522 16zM354 139q84 -2 318 -2q172 0 234.5 49.5t62.5 196.5q0 162 -66.5 219t-243.5 62h-305 v-525zM354 801h303q158 2 217.5 51t59.5 188q0 141 -64.5 188.5t-240.5 47.5h-275v-475z" />
<glyph unicode="C" d="M125 706.5q0 403.5 125 567.5t430 164q219 0 385 -41l-18 -137q-184 18 -367 18q-207 0 -286 -124t-79 -447.5t79 -447.5t286 -124q237 0 395 23l19 -135q-170 -47 -414 -48q-305 0 -430 164t-125 567.5z" />
<glyph unicode="D" horiz-adv-x="1359" d="M178 0v1413q266 18 504 19q305 0 428 -159t123 -566.5t-123 -566t-428 -158.5q-238 0 -504 18zM358 143q184 -4 324 -4q203 0 282.5 124t79.5 443.5t-79.5 444.5t-282.5 125q-131 0 -324 -4v-1129z" />
<glyph unicode="E" horiz-adv-x="1146" d="M166 244v925q2 113 74.5 179.5t197.5 66.5q418 0 606 -12l-8 -141h-567q-123 0 -123 -136v-307h610v-145h-610v-387q0 -137 123 -137h567l8 -140q-188 -12 -606 -12q-125 0 -197.5 66.5t-74.5 179.5z" />
<glyph unicode="F" horiz-adv-x="1103" d="M174 0v1161q0 121 74 187.5t198 66.5q403 0 586 -14l-10 -139h-530q-72 0 -105 -32t-33 -104v-327h590v-146h-590v-653h-180z" />
<glyph unicode="G" horiz-adv-x="1286" d="M127 711q0 416 129 572.5t461 156.5q223 0 393 -43l-18 -135q-172 16 -365 16q-162 0 -245 -42t-124 -167t-41 -371q0 -313 68 -440t238 -127q160 0 348 137v549h176v-817h-131l-21 150q-180 -176 -422 -177q-236 0 -341 176.5t-105 561.5z" />
<glyph unicode="H" horiz-adv-x="1368" d="M178 0v1413h180v-579h652v579h180v-1413h-180v678h-652v-678h-180z" />
<glyph unicode="I" horiz-adv-x="536" d="M178 0v1413h180v-1413h-180z" />
<glyph unicode="J" horiz-adv-x="696" d="M61 8l21 127h102q160 0 160 156v1122h180v-1116q0 -156 -70.5 -235.5t-203.5 -79.5q-115 0 -189 26z" />
<glyph unicode="K" horiz-adv-x="1210" d="M178 0v1413h178v-442q0 -82 -12 -162h172l430 604h197l-412 -586q-25 -37 -78 -90v-4q57 -55 88 -98l430 -635h-202l-451 664h-174q12 -78 12 -150v-514h-178z" />
<glyph unicode="L" horiz-adv-x="1052" d="M174 264v1149h178v-1126q0 -135 137 -135h510l9 -140q-178 -14 -547 -14q-287 0 -287 266z" />
<glyph unicode="M" horiz-adv-x="1796" d="M150 0l55 1337q4 76 76 76h204q57 0 76 -61l264 -863q12 -37 32 -109.5t22 -80.5h36q6 23 23.5 89.5t30.5 105.5l264 858q17 61 78 61h202q74 0 74 -76l60 -1337h-181l-51 1264h-43l-315 -1043q-16 -61 -78 -61h-162q-63 0 -82 61l-315 1043h-41l-49 -1264h-180z" />
<glyph unicode="N" horiz-adv-x="1443" d="M178 0v1341q0 72 72 72h170q55 0 80 -57l463 -977q51 -100 96 -205h35q-6 111 -7 215v1024h179v-1341q0 -72 -70 -72h-176q-55 0 -80 57l-477 1002q-70 152 -80 186h-33q8 -82 8 -186v-1059h-180z" />
<glyph unicode="O" horiz-adv-x="1368" d="M125 706.5q0 411.5 124 572.5t435 161t434 -161t123 -572.5t-123 -572.5t-434 -161t-435 161t-124 572.5zM315 706.5q0 -323.5 80 -447.5t289 -124t289 124t80 447.5t-80 447.5t-289 124t-289 -124t-80 -447.5z" />
<glyph unicode="P" horiz-adv-x="1208" d="M178 0v1413q172 18 486 19q258 0 356 -93.5t98 -349.5t-95 -349t-339 -93q-168 0 -326 18v-565h-180zM358 702h304q158 2 216 60.5t58 226.5t-59.5 227.5t-214.5 59.5q-223 0 -304 -2v-572z" />
<glyph unicode="Q" horiz-adv-x="1370" d="M127 706.5q0 411.5 124 572.5t435 161t434 -161t123 -572.5t-123 -572.5t-434 -161t-435 161t-124 572.5zM317 706.5q0 -323.5 80 -447.5t289 -124q207 0 288 124t81 447.5t-81 447.5t-288 124q-209 0 -289 -124t-80 -447.5zM551 -197l51 109q225 -98 543 -143l-58 -181 q-266 53 -536 215z" />
<glyph unicode="R" horiz-adv-x="1265" d="M178 0v1413q172 18 488 19q252 0 354 -87.5t102 -320.5q0 -174 -60.5 -260t-199.5 -105v-10q57 -14 104.5 -66.5t69.5 -136.5l138 -446h-193l-125 442q-27 80 -72 114t-116.5 34t-175 1t-136.5 1v-592h-178zM356 745h306q160 2 219 57.5t59 211.5q0 154 -59.5 208 t-218.5 54q-225 0 -306 -2v-529z" />
<glyph unicode="S" horiz-adv-x="1148" d="M113 1065q0 123 25.5 197.5t88 112.5t139 50.5t205.5 12.5q250 -4 420 -41l-12 -131q-199 10 -399 10q-90 0 -133.5 -4t-84 -24.5t-54 -64.5t-13.5 -122q0 -113 40 -160t138 -72l287 -71q158 -39 221 -133.5t63 -264.5q0 -233 -105 -309t-368 -76q-223 0 -438 39l12 133 q295 -10 402 -10h31q168 0 226 43t58 185q0 117 -40 162.5t-138 70.5l-293 74q-150 37 -214 132t-64 261z" />
<glyph unicode="T" horiz-adv-x="1189" d="M49 1253v160h1092v-160h-457v-1253h-180v1253h-455z" />
<glyph unicode="U" horiz-adv-x="1363" d="M168 541v872h180v-872q0 -227 74 -316.5t260 -89.5q184 0 259 89t75 317v872h180v-872q0 -309 -114.5 -438.5t-391.5 -129.5q-287 0 -404.5 129t-117.5 439z" />
<glyph unicode="V" horiz-adv-x="1247" d="M35 1413h186l334 -1120q29 -102 41 -154h55q20 84 43 156l332 1118h186l-428 -1362q-18 -51 -69 -51h-183q-55 0 -69 51z" />
<glyph unicode="W" horiz-adv-x="1941" d="M63 1413h191l221 -1102q4 -18 29 -174h47q16 96 33 174l219 1043q10 59 69 59h197q55 0 70 -59l219 -1043q20 -100 28 -174h52q18 123 26 172l224 1104h190l-287 -1360q-14 -53 -71 -53h-205q-59 0 -70 55l-221 1063q-12 53 -33 160h-43l-30 -160l-220 -1063 q-14 -55 -71 -55h-207q-27 0 -46.5 15.5t-23.5 37.5z" />
<glyph unicode="X" horiz-adv-x="1251" d="M51 0l398 731l-371 682h194l324 -610h59l324 610h195l-373 -682l399 -731h-196l-353 664h-53l-350 -664h-197z" />
<glyph unicode="Y" horiz-adv-x="1165" d="M23 1413h192l297 -596q25 -49 63 -160h15q33 90 63 158l297 598h191l-469 -917v-496h-180v498z" />
<glyph unicode="Z" horiz-adv-x="1159" d="M98 0v154l754 1106h-741v153h938v-153l-750 -1106h764v-154h-965z" />
<glyph unicode="[" horiz-adv-x="673" d="M186 -227v1689q0 49 32 80t79 31h293v-115h-209q-29 0 -29 -33v-1615q0 -33 29 -33h209v-115h-293q-111 0 -111 111z" />
<glyph unicode="\" horiz-adv-x="1060" d="M55 1413h146l805 -1548h-146z" />
<glyph unicode="]" horiz-adv-x="673" d="M84 -223h207q31 0 31 33v1615q0 33 -31 33h-207v115h291q49 0 79.5 -31t30.5 -80v-1689q0 -49 -30.5 -80t-79.5 -31h-291v115z" />
<glyph unicode="^" horiz-adv-x="872" d="M61 799l314 430h125l311 -430l-70 -45l-295 356h-16l-297 -356z" />
<glyph unicode="_" horiz-adv-x="1183" d="M143 0h897v-133h-897v133z" />
<glyph unicode="`" horiz-adv-x="645" d="M59 1348l99 133l354 -299l-59 -80z" />
<glyph unicode="a" horiz-adv-x="1124" d="M104 260v109q0 117 73 181t204 64h416v88q0 94 -43 133t-160 39h-11q-146 0 -417 -26l-16 129q274 45 481 45q174 0 258 -72.5t84 -247.5v-702h-137l-21 164q-72 -72 -179.5 -127t-232.5 -55q-137 0 -218 72.5t-81 205.5zM283 281q0 -78 36.5 -114t118.5 -36h8 q76 0 170 37q100 39 181 113v200h-385q-70 -2 -99.5 -36.5t-29.5 -100.5v-63z" />
<glyph unicode="b" d="M156 47v1387h174v-373q0 -143 -19 -221q178 182 385 182q186 0 273.5 -122t87.5 -398q0 -270 -98.5 -398.5t-344.5 -128.5q-256 0 -458 72zM330 158q124 -35 253 -35h27q145 2 204.5 85t62.5 294q-2 211 -51.5 289.5t-190.5 78.5q-72 0 -138.5 -34.5t-166.5 -112.5v-565z " />
<glyph unicode="c" horiz-adv-x="1001" d="M111 499.5q0 288.5 107.5 405.5t367.5 117q197 0 321 -47l-22 -113q-135 12 -271 12q-180 0 -249.5 -79.5t-69.5 -294.5q0 -217 69.5 -297t249.5 -80q164 0 293 20l19 -116q-147 -51 -342 -52q-258 0 -365.5 118t-107.5 406.5z" />
<glyph unicode="d" horiz-adv-x="1173" d="M115 502q0 285 90 402.5t287 117.5q195 0 354 -92q-8 90 -8 196v308h174v-1434h-135l-17 143q-190 -168 -395 -168q-184 0 -267 130.5t-83 396.5zM293 504q0 -215 52 -296t177 -81q78 0 141.5 29.5t174.5 107.5v551q-197 55 -306 55q-133 0 -186 -75.5t-53 -290.5z" />
<glyph unicode="e" horiz-adv-x="1099" d="M111 502q0 289 106.5 404.5t351.5 115.5q223 0 325.5 -81t102.5 -245v-11q0 -271 -237 -271h-465q14 -172 84 -231.5t231 -59.5q170 0 346 24l19 -116q-133 -55 -387 -56q-258 0 -367.5 120t-109.5 407zM293 549h422q109 0 108 147q-2 96 -57 137t-188 41 q-158 0 -219.5 -68.5t-65.5 -256.5z" />
<glyph unicode="f" horiz-adv-x="778" d="M57 860v127l181 8v181q0 145 67.5 218.5t222.5 73.5q172 0 281 -14l-14 -129h-205q-98 0 -138 -38t-40 -130v-160h319v-137h-319v-860h-174v860h-181z" />
<glyph unicode="g" horiz-adv-x="1142" d="M84 -111q0 88 37 141.5t125 100.5q-70 55 -70 143v14q6 99 78 154q-127 68 -127 260q0 172 95 246t333 74q141 0 231 -25h312l-11 -96l-147 -12q41 -68 41 -184q0 -168 -96.5 -243t-331.5 -75q-115 0 -207 21q-27 -33 -27 -71q0 -16 5 -33q16 -56 92 -68l372 -60 q139 -20 195.5 -86.5t56.5 -193.5q0 -174 -103 -242t-372 -68q-270 0 -375.5 66.5t-105.5 236.5zM254 -96q0 -104 61.5 -137t247.5 -33q182 0 244.5 33.5t62.5 136.5q0 74 -31.5 100.5t-140.5 42.5l-340 47q-104 -80 -104 -190zM287 704.5q0 -100.5 59.5 -142.5t206.5 -42 t206.5 42t59.5 142.5t-58.5 142.5t-207.5 42q-147 0 -206.5 -42t-59.5 -142.5z" />
<glyph unicode="h" horiz-adv-x="1189" d="M160 0v1434h176v-396q0 -115 -12 -194q242 178 442 178q270 0 270 -274v-748h-176v698q0 98 -31.5 137t-109.5 39q-84 0 -169 -36.5t-216 -118.5v-719h-174z" />
<glyph unicode="i" horiz-adv-x="507" d="M160 1251v117q0 53 53 53h82q53 0 53 -53v-117q0 -53 -53 -53h-82q-53 0 -53 53zM168 0v997h172v-997h-172z" />
<glyph unicode="j" horiz-adv-x="512" d="M55 -340q115 141 115 315v1022h174v-1022q0 -119 -51 -221t-141 -170zM164 1251v117q0 53 53 53h82q51 0 51 -53v-117q0 -53 -51 -53h-82q-53 0 -53 53z" />
<glyph unicode="k" horiz-adv-x="1042" d="M160 0v1434h176v-637q0 -100 -10 -170h131l315 370h203l-313 -366q-31 -43 -70 -68v-4q41 -31 70 -80l346 -479h-203l-346 500h-135q10 -92 10 -160v-340h-174z" />
<glyph unicode="l" horiz-adv-x="608" d="M162 236v1198h174v-1160v-7q0 -61 32 -93q34 -34 103 -33h96l21 -133q-53 -26 -173 -26h-9q-113 0 -178.5 66.5t-65.5 187.5z" />
<glyph unicode="m" horiz-adv-x="1794" d="M160 0v997h143l10 -157q211 182 408 182q209 0 252 -176q203 176 401 176q129 0 197.5 -69.5t68.5 -204.5v-748h-172v698q-2 92 -37.5 134t-117.5 42q-72 0 -138.5 -32.5t-189.5 -122.5v-719h-168v698q0 94 -38 135t-117 41q-72 0 -138.5 -32.5t-189.5 -120.5v-721h-174z " />
<glyph unicode="n" horiz-adv-x="1189" d="M160 0v997h147l12 -157q242 182 447 182q270 0 270 -274v-748h-174v698q0 98 -32.5 137t-110.5 39q-82 0 -165 -36.5t-220 -120.5v-717h-174z" />
<glyph unicode="o" horiz-adv-x="1163" d="M113 497.5q0 286.5 106.5 405.5t362.5 119q258 0 363.5 -119t105.5 -405.5t-105.5 -405.5t-363.5 -119q-256 0 -362.5 119t-106.5 405.5zM295 498q0 -217 61.5 -297t225 -80t226 80t62.5 297t-62.5 296.5t-226 79.5t-225 -79.5t-61.5 -296.5z" />
<glyph unicode="p" horiz-adv-x="1187" d="M160 -412v1409h143l14 -159q80 86 193 135t221 49q178 0 260 -131t82 -397q0 -283 -90 -401t-286.5 -118t-368.5 103q6 -70 6 -201v-289h-174zM334 188q209 -61 319 -61q135 0 188.5 76t53.5 291q0 209 -50 292.5t-171 83.5q-78 0 -154.5 -35.5t-185.5 -117.5v-529z" />
<glyph unicode="q" d="M113 496q0 272 98 399t350 127q246 0 451 -70v-1364h-176v342q0 129 16 205q-195 -162 -397 -162q-174 0 -258 126t-84 397zM291 483q0 -190 47 -273t174 -83q82 0 153 31.5t173 103.5v578q-123 35 -247 35q-16 0 -32 -1q-152 -4 -210 -84.5t-58 -306.5z" />
<glyph unicode="r" horiz-adv-x="821" d="M160 0v997h135l18 -157q231 182 426 182h45l-20 -164h-57q-76 0 -157 -29.5t-216 -97.5v-731h-174z" />
<glyph unicode="s" horiz-adv-x="1040" d="M102 748q0 166 87 222q81 52 275 52h28q240 -4 419 -31l-14 -127q-311 10 -379 10h-27q-130 0 -172 -18q-47 -20 -47 -108q0 -72 32 -98.5t114 -45.5l291 -65q123 -31 177 -91.5t54 -183.5q0 -174 -96 -230.5t-330 -56.5q-209 0 -391 29l12 127q145 -8 287 -8h57 q174 0 233.5 26.5t59.5 112.5q0 68 -36 93.5t-122 45.5l-286 66q-123 29 -174.5 92.5t-51.5 186.5z" />
<glyph unicode="t" horiz-adv-x="780" d="M55 860v127l181 8v297h174v-295h317v-137h-317v-586q0 -72 30.5 -102.5t104.5 -30.5h151l21 -133q-91 -26 -216 -26h-9q-125 0 -190.5 69.5t-65.5 200.5v608h-181z" />
<glyph unicode="u" d="M154 248v749h174v-700v-10q0 -86 34 -123q36 -39 123 -39q76 0 154 34t195 109v729h174v-997h-140l-12 143q-225 -170 -430 -170q-272 0 -272 275z" />
<glyph unicode="v" horiz-adv-x="1085" d="M37 997h186l246 -698q20 -57 59 -174h27l61 174l246 698h185l-365 -954q-16 -43 -61 -43h-158q-45 0 -62 43z" />
<glyph unicode="w" horiz-adv-x="1687" d="M51 997h180l207 -735q18 -63 33 -149h27l37 149l165 680q10 55 66 55h158q51 0 65 -57l164 -678q4 -23 16.5 -73t18.5 -76h26q2 10 13.5 64t21.5 85l207 735h180l-290 -948q-12 -49 -68 -49h-158q-25 0 -44 15.5t-23 39.5l-164 678q-6 29 -16.5 81t-16.5 77h-25l-34 -158 l-162 -678q-14 -55 -70 -55h-155q-55 0 -68 49z" />
<glyph unicode="x" horiz-adv-x="1081" d="M47 0l334 514l-309 483h188l258 -411h47l256 411h189l-310 -483l334 -514h-188l-285 451h-41l-282 -451h-191z" />
<glyph unicode="y" horiz-adv-x="1083" d="M37 997h186l264 -743q29 -84 37 -121h29q16 41 43 121l260 743h188l-399 -1052q-131 -352 -436 -367l-16 115q117 37 183 101.5t107 162.5l17 43h-39q-49 0 -62 45z" />
<glyph unicode="z" horiz-adv-x="1044" d="M100 0v141l641 713h-635v143h832v-143l-643 -713h649v-141h-844z" />
<glyph unicode="{" horiz-adv-x="653" d="M94 608v127q80 25 99.5 46.5t19.5 111.5v407q0 147 84 217t268 56v-111q-104 0 -144 -39t-40 -135v-366q2 -125 -36 -176.5t-146 -73.5q113 -35 150.5 -84t39.5 -158v-485q0 -94 40 -133t144 -39v-111q-184 -14 -268 55.5t-84 216.5v525q0 39 -5 61.5t-26.5 40t-36 24.5 t-59.5 23z" />
<glyph unicode="|" horiz-adv-x="503" d="M188 -346v1945h127v-1945h-127z" />
<glyph unicode="}" horiz-adv-x="655" d="M82 -227q104 0 144 38.5t40 133.5v485q2 109 40 158t151 84q-109 23 -147 74t-36 176v366q0 96 -40 135t-144 39v111q184 14 268 -55.5t84 -217.5v-407q0 -90 19.5 -111.5t99.5 -46.5v-127q-57 -20 -76.5 -31.5t-35 -39t-15.5 -78.5v-525q0 -147 -84 -216.5t-268 -55.5 v111z" />
<glyph unicode="~" horiz-adv-x="1075" d="M158 467q-14 123 30.5 186.5t126.5 59.5q76 -4 219.5 -59.5t202.5 -61.5q53 -6 72.5 19.5t19.5 90.5h91q14 -119 -31 -182t-127 -59q-88 4 -229.5 59t-192.5 62q-53 6 -72.5 -20.5t-19.5 -94.5h-90z" />
<glyph unicode="&#xa2;" horiz-adv-x="1040" d="M111 715q0 287 107.5 405.5t365.5 118.5h12l16 174h95l-17 -178q127 -10 215 -45l-22 -117q-109 12 -207 17l-64 -752q156 -1 293 22l19 -116q-147 -51 -326 -51l-18 -193h-93l19 195q-215 14 -305 134t-90 386zM283 715q0 -188 53 -271.5t184 -99.5l62 746 q-168 -6 -233.5 -87t-65.5 -288z" />
<glyph unicode="&#xa3;" horiz-adv-x="1165" d="M115 692v103h157l-16 272q-10 225 84 298t307 73q160 0 367 -21l-10 -143q-145 8 -361 8q-125 0 -171 -47t-40 -170l17 -270h434l-4 -103h-424l10 -153q6 -145 -26.5 -233.5t-121.5 -158.5q45 6 138 7h606v-154h-934v154q178 90 160 385l-8 153h-164z" />
<glyph unicode="&#xa5;" horiz-adv-x="1265" d="M74 1413h186l297 -563q16 -29 42 -92.5t28 -67.5h14q41 100 68 158l295 565h188l-404 -751h299v-107h-354l-10 -16v-109h364v-104h-364v-326h-180v326h-357v104h357v109l-8 16h-347l-2 107h291z" />
<glyph unicode="&#xa7;" horiz-adv-x="1114" d="M127 1178q0 156 97.5 209t307.5 53q254 -4 445 -25l-12 -135q-152 10 -387 10q-96 2 -143.5 -3t-84.5 -31.5t-37 -81.5q-2 -68 32 -110t104 -81l331 -186q141 -76 180 -196t-4 -286h-127q10 135 -19.5 213t-121.5 131l-354 203q-106 61 -156.5 130t-50.5 186zM139 -307 l15 137q197 -12 389 -14q59 0 89 1t68.5 7t57 19.5t32 37t13.5 60.5q2 68 -32 110.5t-99 79.5l-332 184q-143 76 -182 194t2 286h127q-10 -137 18.5 -212t122.5 -128l354 -201q104 -61 155.5 -132t51.5 -188q0 -70 -19.5 -118.5t-51 -77.5t-87 -45.5t-109.5 -20.5t-136 -4 q-225 4 -447 25z" />
<glyph unicode="&#xa8;" horiz-adv-x="841" d="M164 1257v113q0 49 47 49h59q47 0 47 -49v-113q0 -49 -47 -49h-59q-47 0 -47 49zM526 1257v113q0 49 49 49h58q49 0 49 -49v-113q0 -49 -49 -49h-58q-49 0 -49 49z" />
<glyph unicode="&#xa9;" horiz-adv-x="1712" d="M121 706.5q0 315.5 213 524.5t522 209q311 0 523 -208t212 -525.5t-212 -525.5t-523 -208q-309 0 -522 209t-213 524.5zM217 706.5q0 -272.5 186.5 -455.5t452.5 -183t452.5 182t186.5 456.5t-186.5 457t-452.5 182.5t-452.5 -183.5t-186.5 -456zM467 711q0 250 90 351 t309 101q162 0 277 -28l-17 -99q-131 6 -262 6q-147 0 -203.5 -71.5t-56.5 -260t56.5 -260t203.5 -71.5q187 0 287 12l12 -100q-127 -31 -297 -31q-219 0 -309 101.5t-90 349.5z" />
<glyph unicode="&#xab;" horiz-adv-x="993" d="M90 494v41l330 405l90 -61l-258 -365l260 -373l-90 -61zM463 494v41l328 405l92 -61l-258 -365l260 -373l-92 -61z" />
<glyph unicode="&#xad;" horiz-adv-x="919" d="M147 451v133h625v-133h-625z" />
<glyph unicode="&#xae;" horiz-adv-x="1132" d="M111 983q0 188 133 321.5t323 133.5q188 0 321.5 -133.5t133.5 -321.5q0 -190 -133 -323.5t-322 -133.5q-190 0 -323 133.5t-133 323.5zM174 983q0 -164 114.5 -279.5t278.5 -115.5q162 0 276.5 115.5t114.5 279.5t-114.5 279.5t-276 115.5t-277.5 -115.5t-116 -279.5z M362 719v530q70 6 224 6q115 0 163 -32.5t48 -120.5q0 -61 -27.5 -93t-93.5 -40v-4q59 -8 80 -78l61 -168h-86l-57 164q-23 55 -86 55h-144v-219h-82zM444 997h140q74 2 102.5 22.5t26.5 74.5q2 57 -26 76.5t-103 19.5h-140v-193z" />
<glyph unicode="&#xb0;" horiz-adv-x="743" d="M106 1179.5q0 106.5 78 183.5t189 77q109 0 186.5 -77t77.5 -183.5t-78 -184t-186.5 -77.5t-187.5 77.5t-79 184zM217 1180q0 -66 45 -111t111 -45q63 0 108 45t45 110.5t-45 109.5t-108 44q-66 0 -111 -43t-45 -110z" />
<glyph unicode="&#xb4;" horiz-adv-x="643" d="M113 1182l352 299l100 -133l-393 -246z" />
<glyph unicode="&#xb6;" horiz-adv-x="1214" d="M82 922q0 283 143.5 399.5t483.5 116.5q184 0 309 -35v-1403h-133v1315q-143 8 -201 8v-1753h-133v842q-250 23 -359.5 141.5t-109.5 368.5z" />
<glyph unicode="&#xb7;" horiz-adv-x="483" d="M147 471v113q0 35 15.5 50t50.5 15h57q35 0 50.5 -15.5t15.5 -49.5v-113q0 -35 -15.5 -49t-50.5 -14h-57q-35 0 -50.5 14t-15.5 49z" />
<glyph unicode="&#xb8;" horiz-adv-x="479" d="M70 -469l26 92q84 -2 136.5 38t54.5 103q2 37 -22.5 50.5t-98.5 15.5l18 82q125 12 177.5 -16.5t50.5 -116.5q-2 -129 -98.5 -198.5t-243.5 -49.5z" />
<glyph unicode="&#xbb;" horiz-adv-x="993" d="M109 141l260 373l-258 365l92 61l327 -405v-41l-329 -414zM479 141l262 373l-260 365l92 61l328 -405v-41l-330 -414z" />
<glyph unicode="&#x192;" horiz-adv-x="905" d="M-94 -285l22 131h138q90 0 130 38t48 128l63 666h-201l9 129l204 8l31 328q27 291 318 291q143 0 209 -13l-23 -131h-145q-94 0 -135.5 -34.5t-49.5 -133.5l-28 -307h292l-14 -137h-293l-63 -686q-12 -143 -84 -217t-219 -74q-129 0 -209 14z" />
<glyph unicode="&#x2c6;" horiz-adv-x="860" d="M98 1200l271 260h125l272 -260l-61 -76l-265 199h-16l-266 -199z" />
<glyph unicode="&#x2da;" horiz-adv-x="614" d="M88 1305q0 90 64.5 152.5t154.5 62.5t154.5 -62.5t64.5 -152.5q0 -92 -63.5 -153.5t-155.5 -61.5t-155.5 61t-63.5 154zM186 1305q0 -57 35 -91t86 -34q53 0 88 33.5t35 91.5q0 55 -35 90t-88 35t-87 -35t-34 -90z" />
<glyph unicode="&#x2dc;" horiz-adv-x="860" d="M106 1198q-12 119 34 179.5t126 54.5q66 -6 158 -56.5t147 -56.5q57 -8 79 16.5t22 85.5h82q12 -113 -33 -174t-127 -55q-76 6 -171 58.5t-138 58.5q-55 6 -76 -21t-21 -90h-82z" />
<glyph unicode="&#x401;" horiz-adv-x="1146" d="M166 244v925q0 113 73.5 179.5t198.5 66.5q416 0 604 -12l-8 -141h-567q-63 0 -92 -33t-29 -103v-307h608v-145h-608v-387q0 -72 28.5 -104.5t92.5 -32.5h567l8 -140q-188 -12 -604 -12q-127 0 -199.5 66.5t-72.5 179.5zM375 1663v111q0 49 47 49h59q47 0 47 -49v-111 q0 -49 -47 -49h-59q-47 0 -47 49zM737 1663v111q0 49 49 49h58q49 0 49 -49v-111q0 -49 -49 -49h-58q-49 0 -49 49z" />
<glyph unicode="&#x402;" horiz-adv-x="1540" d="M49 1253v160h1092v-160h-457v-467q195 119 416 119q166 0 258 -92t92 -338q0 -266 -135 -379.5t-389 -103.5l-17 131q193 12 278 81.5t85 254.5q0 178 -52.5 234.5t-177.5 56.5q-166 0 -358 -107v-643h-180v1253h-455z" />
<glyph unicode="&#x403;" horiz-adv-x="1060" d="M174 0v1149q0 117 72.5 191.5t185.5 74.5q401 0 586 -14l-8 -139h-518q-74 0 -107 -34t-33 -112v-1116h-178zM469 1571l354 301l99 -135l-392 -246z" />
<glyph unicode="&#x404;" horiz-adv-x="1181" d="M125 706.5q0 403.5 127 567.5t442 164q223 0 389 -41l-18 -140q-158 18 -373 19q-197 0 -281.5 -101.5t-97.5 -355.5h605v-141h-607q2 -303 86 -422t295 -119q229 0 385 23l21 -137q-168 -47 -404 -48q-315 0 -442 164t-127 567.5z" />
<glyph unicode="&#x405;" horiz-adv-x="1148" d="M113 1065q0 123 25.5 197.5t88 112.5t139 50.5t205.5 12.5q250 -4 420 -41l-12 -131q-199 10 -399 10q-90 0 -133.5 -4t-84 -24.5t-54 -64.5t-13.5 -122q0 -113 40 -160t138 -72l287 -71q158 -39 221 -133.5t63 -264.5q0 -233 -105 -309t-368 -76q-223 0 -438 39l12 133 q344 -12 433 -10q168 0 226 43t58 185q0 117 -40 162.5t-138 70.5l-293 74q-150 37 -214 132t-64 261z" />
<glyph unicode="&#x406;" horiz-adv-x="536" d="M178 0v1413h180v-1413h-180z" />
<glyph unicode="&#x407;" horiz-adv-x="536" d="M8 1618v113q0 49 49 49h60q47 0 47 -49v-113q0 -49 -47 -49h-60q-49 0 -49 49zM178 0v1413h180v-1413h-180zM371 1618v113q0 49 49 49h59q47 0 47 -49v-113q0 -49 -47 -49h-59q-49 0 -49 49z" />
<glyph unicode="&#x408;" horiz-adv-x="696" d="M61 8l21 127h102q160 0 160 156v1122h180v-1116q0 -156 -70.5 -235.5t-203.5 -79.5q-115 0 -189 26z" />
<glyph unicode="&#x409;" horiz-adv-x="1986" d="M45 121q119 49 197 196q43 84 68.5 196t35.5 207t29 327q6 68 8 102q14 264 293 264h461v-569h290q262 0 363.5 -95.5t101.5 -336.5q0 -246 -98 -337t-340 -91q-317 0 -496 16v8v1258h-266q-68 0 -98.5 -36t-36.5 -108q-37 -412 -61.5 -567.5t-84 -288.5t-141.5 -196.5 t-211 -71.5zM1137 143q78 -2 290 -2q168 0 225.5 54.5t57.5 220.5q0 158 -56.5 217t-226.5 59h-290v-549z" />
<glyph unicode="&#x40a;" horiz-adv-x="2004" d="M178 0v1413h180v-573h617v573h178v-573h293q260 0 361.5 -94.5t101.5 -335.5q0 -246 -97.5 -336t-338.5 -90q-319 0 -498 16v692h-617v-692h-180zM1153 143q78 -2 293 -2q168 0 225.5 53.5t57.5 217.5q0 160 -57.5 220t-225.5 60h-293v-549z" />
<glyph unicode="&#x40b;" horiz-adv-x="1589" d="M49 1253v160h1092v-160h-457v-469q229 121 467 121q164 0 244 -78.5t80 -240.5v-586h-181v551q0 109 -46 153t-158 44q-193 0 -406 -111v-637h-180v1253h-455z" />
<glyph unicode="&#x40c;" horiz-adv-x="1228" d="M178 0v1413h178v-442q0 -82 -12 -162h154q70 0 127 32.5t94 70.5t82 133.5t65.5 148.5t67.5 190q6 18 10 29h184q-119 -338 -170 -436q-109 -205 -270 -232q-10 -2 -22 -4v-8q39 -4 74.5 -16t64.5 -25.5t57.5 -44.5t48 -53.5t45 -71.5t40 -77.5t41 -95t40 -103.5t43 -120 t45.5 -126h-190q-10 29 -31 86q-37 102 -54.5 150.5t-48 124t-52 109.5t-55.5 80t-66.5 65.5t-75.5 34t-94 14.5h-154q12 -78 12 -150v-514h-178zM487 1571l353 301l100 -135l-393 -246z" />
<glyph unicode="&#x40d;" horiz-adv-x="1415" d="M178 0v1413h174v-1020q0 -76 -10 -168h8q31 68 80 154l621 1034h186v-1413h-174v1030q0 96 10 162h-10q-27 -70 -74 -154l-627 -1038h-184zM362 1737l101 135l352 -301l-59 -80z" />
<glyph unicode="&#x40e;" horiz-adv-x="1153" d="M43 1413h186l285 -817q12 -33 47 -33h82l301 850h184l-380 -1065q-61 -170 -131 -261t-187 -101q-123 -8 -254 28l21 133q76 -6 115.5 -9t80.5 4.5t57.5 15.5t40 38.5t37 60.5t37.5 91l25 64h-78q-109 0 -141 96zM268 1796l90 14q0 -74 56.5 -113.5t163.5 -39.5 q102 0 159.5 39.5t55.5 113.5l90 -14q8 -121 -75 -194.5t-230.5 -73.5t-232.5 73.5t-77 194.5z" />
<glyph unicode="&#x40f;" horiz-adv-x="1380" d="M178 0v1413h180v-1266h664v1266h180v-1413h-436l-8 -309h-123l-12 309h-445z" />
<glyph unicode="&#x410;" horiz-adv-x="1273" d="M20 0l455 1364q12 49 68 49h188q55 0 68 -49l454 -1364h-186l-139 442h-582l-139 -442h-187zM395 598h484l-179 561q-18 53 -34 115h-58l-35 -115z" />
<glyph unicode="&#x411;" horiz-adv-x="1226" d="M178 0v1413q221 12 438 12q215 0 431 -12l-17 -149h-672v-459h299q262 0 363.5 -91t101.5 -325q0 -135 -28.5 -217t-96 -124t-149.5 -54t-221 -12q-242 0 -445 18h-4zM358 139q78 -2 299 -2q170 0 226.5 51.5t56.5 208.5q0 154 -56.5 210.5t-226.5 56.5h-299v-525z" />
<glyph unicode="&#x412;" horiz-adv-x="1269" d="M178 0v1413q162 16 459 17q264 0 367.5 -77t103.5 -292q0 -154 -57.5 -233t-182.5 -91v-8q154 -14 218.5 -107.5t64.5 -269.5q0 -213 -100.5 -290.5t-350.5 -77.5q-340 0 -522 16zM354 139q84 -2 318 -2q172 0 234.5 49.5t62.5 196.5q0 162 -66.5 219t-243.5 62h-305 v-525zM354 801h303q158 2 217.5 51t59.5 188q0 141 -64.5 188.5t-240.5 47.5h-275v-475z" />
<glyph unicode="&#x413;" horiz-adv-x="1060" d="M174 0v1149q0 117 72.5 191.5t185.5 74.5q401 0 586 -14l-8 -139h-518q-74 0 -107 -34t-33 -112v-1116h-178z" />
<glyph unicode="&#x414;" horiz-adv-x="1419" d="M45 147h137q174 371 207 1002q4 125 80 194.5t207 69.5h504v-1266h174v-456h-125l-17 309h-1024l-18 -309h-125v456zM356 147h643v1119h-290q-76 0 -110 -33t-38 -111q-18 -322 -63 -551t-142 -424z" />
<glyph unicode="&#x415;" horiz-adv-x="1146" d="M166 244v925q0 113 73.5 179.5t198.5 66.5q416 0 604 -12l-8 -141h-567q-63 0 -92 -33t-29 -103v-307h608v-145h-608v-387q0 -72 28.5 -104.5t92.5 -32.5h567l8 -140q-188 -12 -604 -12q-127 0 -199.5 66.5t-72.5 179.5z" />
<glyph unicode="&#x416;" horiz-adv-x="1859" d="M63 0q131 375 181 473q98 197 237 244q37 12 80 16v8q-68 8 -125 43t-96 82t-79 131t-68.5 158t-69.5 193q-14 43 -23 65h185q117 -322 170 -416q106 -188 260 -188h145q-12 80 -12 162v442h172v-442q0 -98 -12 -162h135q51 0 94 16.5t81 58.5t64.5 78.5t61.5 115.5 t53.5 127t56.5 153q14 37 21 55h184q-119 -338 -170 -436q-109 -205 -270 -232q-11 -2 -23 -4v-8q74 -6 134.5 -44t99.5 -78t87 -143t72.5 -167.5t79.5 -224.5q18 -49 27 -76h-190q-131 358 -172 440q-90 176 -209 213q-37 10 -82 11h-135q12 -76 12 -150v-514h-172v514 q0 59 14 150h-147q-104 0 -182 -78t-119 -168t-125 -320q-25 -66 -37 -98h-189z" />
<glyph unicode="&#x417;" horiz-adv-x="1126" d="M76 29l14 131q231 -27 440 -27q166 0 227.5 50t61.5 200q0 162 -65.5 220.5t-237.5 58.5h-237v141h237q152 0 209 49t57 188q0 143 -63.5 192.5t-231.5 49.5q-122 1 -364 -22l-14 137q182 33 389 33q262 0 363.5 -77t101.5 -292q0 -154 -56.5 -232.5t-181.5 -91.5v-8 q152 -14 215.5 -107.5t63.5 -269.5q0 -213 -99.5 -290.5t-345.5 -77.5q-293 0 -483 45z" />
<glyph unicode="&#x418;" horiz-adv-x="1415" d="M178 0v1413h174v-1020q0 -76 -10 -168h8q31 68 80 154l621 1034h186v-1413h-174v1030q0 96 10 162h-10q-27 -70 -74 -154l-627 -1038h-184z" />
<glyph unicode="&#x419;" horiz-adv-x="1415" d="M178 0v1413h174v-1020q0 -76 -10 -168h8q31 68 80 154l621 1034h186v-1413h-174v1030q0 96 10 162h-10q-27 -70 -74 -154l-627 -1038h-184zM403 1808h134q0 -88 46 -136t130 -48t128 48t44 136h133q8 -123 -76 -202.5t-229 -79.5q-147 0 -232.5 80t-77.5 202z" />
<glyph unicode="&#x41a;" horiz-adv-x="1228" d="M178 0v1413h178v-442q0 -82 -12 -162h154q70 0 127 32.5t94 70.5t82 133.5t65.5 148.5t67.5 190q6 18 10 29h184q-119 -338 -170 -436q-109 -205 -270 -232q-10 -2 -22 -4v-8q39 -4 74.5 -16t64.5 -25.5t57.5 -44.5t48 -53.5t45 -71.5t40 -77.5t41 -95t40 -103.5t43 -120 t45.5 -126h-190q-10 29 -31 86q-37 102 -54.5 150.5t-48 124t-52 109.5t-55.5 80t-66.5 65.5t-75.5 34t-94 14.5h-154q12 -78 12 -150v-514h-178z" />
<glyph unicode="&#x41b;" horiz-adv-x="1333" d="M20 137q141 43 203 178q57 129 84 286t58 554q25 258 280 258h510v-1413h-180v1266h-283q-139 0 -151 -144q-27 -303 -39.5 -411.5t-39 -231.5t-69.5 -213q-123 -268 -356 -268z" />
<glyph unicode="&#x41c;" horiz-adv-x="1796" d="M150 0l55 1337q4 76 76 76h204q57 0 76 -61l264 -863q12 -37 32 -109.5t22 -80.5h36q6 23 23.5 89.5t30.5 105.5l264 858q17 61 78 61h202q74 0 74 -76l60 -1337h-181l-51 1264h-43l-315 -1043q-16 -61 -78 -61h-162q-63 0 -82 61l-315 1043h-41l-49 -1264h-180z" />
<glyph unicode="&#x41d;" horiz-adv-x="1368" d="M178 0v1413h180v-579h652v579h180v-1413h-180v678h-652v-678h-180z" />
<glyph unicode="&#x41e;" horiz-adv-x="1368" d="M125 706.5q0 411.5 124 572.5t435 161t434 -161t123 -572.5t-123 -572.5t-434 -161t-435 161t-124 572.5zM315 706.5q0 -323.5 80 -447.5t289 -124t289 124t80 447.5t-80 447.5t-289 124t-289 -124t-80 -447.5z" />
<glyph unicode="&#x41f;" horiz-adv-x="1370" d="M178 0v1413h1014v-1413h-180v1266h-654v-1266h-180z" />
<glyph unicode="&#x420;" horiz-adv-x="1208" d="M178 0v1413q172 18 488 19q256 0 354 -93.5t98 -349.5t-95 -349t-339 -93q-164 0 -326 18v-565h-180zM358 702h304q158 2 216 60.5t58 226.5t-59.5 227.5t-214.5 59.5q-221 0 -304 -2v-572z" />
<glyph unicode="&#x421;" d="M125 706.5q0 403.5 125 567.5t430 164q219 0 385 -41l-18 -137q-184 18 -367 18q-207 0 -286 -124t-79 -447.5t79 -447.5t286 -124q237 0 395 23l19 -135q-170 -47 -414 -48q-305 0 -430 164t-125 567.5z" />
<glyph unicode="&#x422;" horiz-adv-x="1189" d="M49 1253v160h1092v-160h-457v-1253h-180v1253h-455z" />
<glyph unicode="&#x423;" horiz-adv-x="1153" d="M43 1413h186l285 -817q12 -33 47 -33h82l301 850h184l-380 -1065q-61 -170 -131 -261t-187 -101q-123 -8 -254 28l21 133q76 -6 115.5 -9t80.5 4.5t57.5 15.5t40 38.5t37 60.5t37.5 91l25 64h-78q-109 0 -141 96z" />
<glyph unicode="&#x424;" horiz-adv-x="1683" d="M104 721q0 326 144.5 461t503.5 147v199h180v-199q356 -12 500.5 -147t146.5 -461q-2 -319 -146.5 -452.5t-500.5 -145.5v-199h-180v199q-356 12 -502 145t-146 453zM289 721q0 -246 100.5 -341.5t368.5 -105.5v904q-268 -10 -368.5 -107.5t-100.5 -349.5zM924 274 q268 10 368.5 105.5t102.5 341.5q-2 252 -102.5 349.5t-368.5 107.5v-904z" />
<glyph unicode="&#x425;" horiz-adv-x="1255" d="M53 0l398 731l-371 682h194l324 -610h57l326 610h195l-373 -682l399 -731h-196l-353 664h-53l-352 -664h-195z" />
<glyph unicode="&#x426;" horiz-adv-x="1415" d="M178 0v1413h180v-1266h637v1266h181v-1266h174v-456h-125l-17 309h-1030z" />
<glyph unicode="&#x427;" horiz-adv-x="1280" d="M123 834v579h180v-543q-2 -102 45 -148t154 -46q203 0 422 108v629h178v-1413h-178v645q-236 -131 -486 -131q-162 0 -238.5 78t-76.5 242z" />
<glyph unicode="&#x428;" horiz-adv-x="1902" d="M178 0v1413h176v-1266h510v1266h174v-1266h510v1266h176v-1413h-1546z" />
<glyph unicode="&#x429;" horiz-adv-x="1949" d="M178 0v1413h176v-1266h502v1266h176v-1266h504v1266h174v-1266h174v-456h-125l-16 309h-1565z" />
<glyph unicode="&#x42a;" horiz-adv-x="1531" d="M47 1253v160h631v-569h295q260 0 361.5 -96.5t101.5 -337.5q0 -246 -97.5 -336t-339.5 -90q-324 0 -503 16v1253h-449zM678 143q78 -2 295 -2q168 0 225 53.5t57 217.5q0 160 -57 220t-225 60h-295v-549z" />
<glyph unicode="&#x42b;" horiz-adv-x="1732" d="M178 0v1413h180v-569h299q260 0 361.5 -96.5t101.5 -337.5q0 -246 -97 -336t-339 -90q-324 0 -502 16h-4zM358 143q78 -2 299 -2q168 0 225.5 53.5t57.5 217.5q0 160 -57.5 220t-225.5 60h-299v-549zM1376 0v1413h178v-1413h-178z" />
<glyph unicode="&#x42c;" horiz-adv-x="1216" d="M178 0v1413h180v-569h299q260 0 361.5 -96.5t101.5 -337.5q0 -246 -97 -336t-339 -90q-324 0 -502 16h-4zM358 143q78 -2 299 -2q168 0 225.5 53.5t57.5 217.5q0 160 -57.5 220t-225.5 60h-299v-549z" />
<glyph unicode="&#x42d;" horiz-adv-x="1181" d="M84 23l18 137q156 -23 385 -23q211 0 295 119t86 424h-606v141h604q-12 254 -97 354.5t-282 100.5q-214 -1 -370 -19l-21 140q166 41 391 41q315 0 441.5 -164t126.5 -567.5t-126 -567.5t-442 -164q-238 0 -403 48z" />
<glyph unicode="&#x42e;" horiz-adv-x="1898" d="M180 0v1413h180v-606h322q12 352 132 492.5t396 140.5q311 0 435 -161t124 -572.5t-123.5 -572.5t-435.5 -161q-287 0 -405.5 151.5t-124.5 537.5h-320v-662h-180zM858 706.5q0 -323.5 75.5 -447.5t276.5 -124q209 0 289 124t82 448q-2 324 -82 447.5t-289 123.5 q-201 0 -276.5 -124t-75.5 -447.5z" />
<glyph unicode="&#x42f;" horiz-adv-x="1255" d="M88 0l131 432q50 164 193 199l-2 10q-266 37 -263 377q0 223 104.5 318.5t344.5 95.5q311 0 481 -19v-1413h-180v575q-31 0 -133 -1t-174 -1q-141 0 -187 -149l-122 -424h-193zM328 1008q0 -141 59 -210t203 -69h307v545q-78 2 -299 2q-150 0 -209 -57.5t-61 -210.5z" />
<glyph unicode="&#x430;" horiz-adv-x="1130" d="M109 260v109q0 117 72.5 181t203.5 64h416v88q-2 94 -45 133t-158 39q-145 1 -430 -26l-16 129q279 45 483 45q174 0 257 -72.5t83 -247.5v-702h-137l-21 164q-72 -74 -179.5 -128t-231.5 -54q-137 0 -217 72.5t-80 205.5zM285 281q0 -78 37.5 -114t117.5 -36 q80 -2 178.5 37t182.5 113v200h-385q-131 -6 -131 -137v-63z" />
<glyph unicode="&#x431;" horiz-adv-x="1175" d="M145 602q0 141 7.5 237.5t30 190.5t64.5 154.5t109.5 109.5t165.5 78q55 16 142.5 31.5t159 38t145.5 67.5l41 -135q-74 -45 -141.5 -67.5t-154.5 -39t-134 -28.5q-143 -41 -205 -127t-80 -211q-12 -61 -19 -145h5q41 96 123.5 153.5t257.5 57.5q219 0 308 -111t89 -371 q0 -256 -98.5 -383t-358.5 -127q-125 0 -212 33t-134 82t-72.5 138t-32 168t-6.5 206zM326 485q0 -205 61.5 -283.5t216.5 -78.5q152 0 212.5 78t60.5 284q0 193 -55.5 263.5t-205.5 70.5q-174 0 -232 -78.5t-58 -255.5z" />
<glyph unicode="&#x432;" horiz-adv-x="1134" d="M162 -2v997q150 12 405 13q238 0 329 -55.5t91 -211.5q0 -106 -51 -161.5t-164 -63.5v-6q135 -10 192.5 -74.5t57.5 -189.5q0 -150 -89 -205t-310 -55q-291 0 -461 12zM326 125q31 0 123 -1t149 -1q141 0 195.5 32.5t54.5 127t-57.5 131.5t-202.5 37h-262v-326zM326 575 h262q131 0 182 32t51 120q0 84 -56 113.5t-204 29.5q-141 2 -235 0v-295z" />
<glyph unicode="&#x433;" horiz-adv-x="946" d="M158 0v784q0 217 221 217q358 0 522 -16l-6 -123h-444q-63 0 -92 -29.5t-29 -93.5v-739h-172z" />
<glyph unicode="&#x434;" horiz-adv-x="1202" d="M59 139h115q125 252 150 629q16 229 254 229h409v-858h137v-434h-114l-15 295h-807l-16 -295h-113v434zM332 139h489v721h-215q-115 0 -125 -121q-27 -373 -149 -600z" />
<glyph unicode="&#x435;" horiz-adv-x="1105" d="M115 502q0 289 106.5 404.5t349.5 115.5q223 0 325.5 -81t104.5 -245q1 -282 -237 -282h-465q14 -172 84 -231.5t229 -59.5q172 0 349 24l16 -116q-131 -55 -387 -56q-258 0 -366.5 120t-108.5 407zM297 549h422q111 0 106 147q0 96 -55 137t-190 41q-158 0 -219.5 -69.5 t-63.5 -255.5z" />
<glyph unicode="&#x436;" horiz-adv-x="1615" d="M70 0q41 113 58 159t50 120.5t55.5 103.5t58.5 64.5t77 50t94 20.5v4q-94 10 -160.5 75t-96.5 129.5t-97 246.5q-6 16 -11 24h174q39 -98 58.5 -144t52.5 -109.5t59.5 -91t66.5 -48t89 -20.5h145q-8 49 -8 116v297h154v-297q0 -68 -8 -116h135q113 0 175 91t150 322h177 q-43 -115 -61.5 -163t-53.5 -120.5t-65.5 -102t-78 -56.5t-106.5 -33v-4q53 -6 94 -20.5t77 -50t58.5 -64.5t55 -103.5t50 -120.5t58.5 -159h-178q-109 274 -149 338q-72 111 -187 115h-8h-143q8 -70 8 -99v-354h-154v354q0 29 8 99h-153q-111 -2 -168 -83t-154 -319 q-12 -33 -20 -51h-178z" />
<glyph unicode="&#x437;" horiz-adv-x="1015" d="M78 12l14 133q184 -16 371 -16q152 0 206 32t54 122q0 92 -56.5 126.5t-201.5 34.5h-238v129h238q133 0 181 32t48 120q0 86 -56 113.5t-218 27.5q-176 0 -297 -16l-12 133q127 31 307 31q254 0 351 -54.5t97 -211.5q0 -111 -47 -166.5t-162 -65.5v-6 q129 -10 187.5 -73.5t58.5 -190.5q0 -154 -96 -209t-332 -55q-227 0 -397 30z" />
<glyph unicode="&#x438;" horiz-adv-x="1202" d="M162 0v997h157v-661q0 -59 -6 -133h4q33 68 72 114l508 680h141v-997h-157v662q0 25 3 72.5t3 60.5h-4q-23 -55 -70 -117l-508 -678h-143z" />
<glyph unicode="&#x439;" horiz-adv-x="1202" d="M162 0v997h157v-661q0 -59 -6 -133h4q33 68 72 114l508 680h141v-997h-157v662q0 25 3 72.5t3 60.5h-4q-23 -55 -70 -117l-508 -678h-143zM285 1440h133q0 -88 46 -136.5t130 -48.5q82 0 127 48.5t45 136.5h133q8 -121 -76 -201t-229 -80q-147 0 -232.5 80t-76.5 201z " />
<glyph unicode="&#x43a;" horiz-adv-x="1097" d="M162 0v997h174v-297q0 -53 -10 -114h139q72 0 123 24.5t93 87t68.5 122t69.5 177.5h180q-25 -68 -36 -95.5t-32.5 -80.5t-33.5 -74.5t-32.5 -60.5t-37 -55.5t-41 -40t-48 -34.5t-54.5 -20.5t-66 -13.5v-6q55 -4 98.5 -18.5t80.5 -49t61.5 -65.5t57 -101.5t52 -121.5 t60.5 -160h-182q-35 90 -49.5 126t-42 99.5t-44 86t-44 58.5t-53 47t-60.5 22.5t-78 11.5h-10h-137q8 -66 8 -97v-354h-174z" />
<glyph unicode="&#x43b;" horiz-adv-x="1150" d="M39 123q80 18 117 50t59 89q49 125 88 502q14 119 75.5 176t184.5 57h424v-997h-174v860h-217q-63 0 -91 -27.5t-38 -97.5q-49 -397 -96 -524q-76 -219 -314 -221z" />
<glyph unicode="&#x43c;" horiz-adv-x="1531" d="M141 0l41 932q0 66 68 65h180q51 0 68 -57l207 -573q20 -57 43 -144h32q29 100 43 144l207 573q19 57 70 57h182q66 0 66 -65l43 -932h-162l-39 864h-35l-254 -698q-18 -57 -70 -57h-135q-51 0 -69 57l-254 698h-35l-37 -864h-160z" />
<glyph unicode="&#x43d;" horiz-adv-x="1191" d="M162 0v997h172v-401h524v401h172v-997h-172v463h-524v-463h-172z" />
<glyph unicode="&#x43e;" horiz-adv-x="1169" d="M115 497.5q0 286.5 106.5 405.5t364.5 119q256 0 362.5 -119t106.5 -405.5t-106.5 -405.5t-362.5 -119q-258 0 -364.5 119t-106.5 405.5zM297 498q0 -217 61.5 -297t227.5 -80q164 0 225 80t61 297t-61 296.5t-225 79.5q-166 0 -227.5 -79.5t-61.5 -296.5z" />
<glyph unicode="&#x43f;" horiz-adv-x="1177" d="M162 0v997h854v-997h-172v856h-512v-856h-170z" />
<glyph unicode="&#x440;" horiz-adv-x="1193" d="M164 -412v1409h141l14 -159q82 86 194 135t220 49q180 0 262 -131t82 -397q0 -283 -90 -401t-287 -118q-201 0 -368 103q8 -86 4 -201v-289h-172zM336 188q209 -61 319 -61q135 0 188.5 76t53.5 291q0 209 -50 292.5t-169 83.5q-137 1 -342 -153v-529z" />
<glyph unicode="&#x441;" horiz-adv-x="1007" d="M115 500q0 287 107.5 404.5t365.5 117.5q197 0 321 -47l-22 -113q-135 12 -271 12q-178 0 -248.5 -79.5t-70.5 -294.5q0 -217 69.5 -297t249.5 -80q166 0 295 20l17 -116q-145 -51 -340 -52q-260 0 -366.5 118t-106.5 407z" />
<glyph unicode="&#x442;" horiz-adv-x="1003" d="M53 854v143h897v-143h-360v-854h-174v854h-363z" />
<glyph unicode="&#x443;" horiz-adv-x="1089" d="M41 997h186l265 -743q23 -68 36 -121h29q14 41 41 121l262 743h187l-398 -1052q-80 -209 -188 -291q-131 -98 -371 -66l16 121q162 -8 240 45q84 59 139 203l19 43h-39q-47 0 -64 45z" />
<glyph unicode="&#x444;" horiz-adv-x="1472" d="M113 498q0 268 124.5 389t417.5 133v414h162v-414q293 -12 418 -133t125 -389q0 -266 -125 -387t-418 -134v-389h-162v389q-293 12 -417.5 133t-124.5 388zM281 498q0 -199 84 -281t297 -92v749q-213 -10 -297 -93t-84 -283zM811 125q211 10 295 92t84 280.5t-84 282.5 t-295 94v-749z" />
<glyph unicode="&#x445;" horiz-adv-x="1087" d="M49 0l334 514l-307 483h188l256 -411h47l258 411h189l-309 -483l333 -514h-190l-283 451h-41l-284 -451h-191z" />
<glyph unicode="&#x446;" horiz-adv-x="1216" d="M164 0v997h170v-858h495v858h172v-858h138v-434h-115l-18 295h-842z" />
<glyph unicode="&#x447;" horiz-adv-x="1089" d="M113 565v432h172v-374q0 -74 30.5 -104t104.5 -30q166 0 332 70v438h172v-997h-172v420q-205 -74 -390 -74q-250 0 -249 219z" />
<glyph unicode="&#x448;" horiz-adv-x="1650" d="M162 0v997h170v-858h413v858h158v-858h416v858h168v-997h-1325z" />
<glyph unicode="&#x449;" horiz-adv-x="1701" d="M164 0v997h168v-858h413v858h158v-858h418v858h168v-858h137v-434h-117l-16 295h-1329z" />
<glyph unicode="&#x44a;" horiz-adv-x="1294" d="M53 858v139h520v-387h232q229 0 315 -67.5t86 -243.5q0 -178 -85 -244.5t-290 -66.5q-270 0 -428 12v858h-350zM573 127l232 -2q127 0 175 36t48 144q0 100 -46 138t-177 38h-232v-354z" />
<glyph unicode="&#x44b;" horiz-adv-x="1476" d="M162 0v997h170v-387h235q221 0 305 -67.5t84 -243.5q0 -178 -81.5 -244.5t-280.5 -66.5q-268 0 -426 12h-6zM332 127l235 -2q121 0 167 36t46 144q0 100 -45 138t-168 38h-235v-354zM1139 0v997h176v-997h-176z" />
<glyph unicode="&#x44c;" horiz-adv-x="1056" d="M162 0v997h170v-387h235q229 0 315.5 -67.5t86.5 -243.5q0 -178 -85 -244.5t-290 -66.5q-268 0 -426 12h-6zM332 127l235 -2q127 0 175.5 36t48.5 144q0 100 -46.5 138t-177.5 38h-235v-354z" />
<glyph unicode="&#x44d;" horiz-adv-x="1036" d="M84 18l18 123q172 -14 332 -14q168 0 235.5 66.5t75.5 248.5h-507v131h505q-10 166 -79.5 228.5t-229.5 62.5q-143 0 -321 -10l-19 121q125 35 340 35q270 0 379 -114t109 -402q0 -285 -108.5 -399.5t-379.5 -114.5q-213 0 -350 38z" />
<glyph unicode="&#x44e;" horiz-adv-x="1628" d="M164 0v997h172v-415h256q12 250 111.5 345t336.5 95q264 0 368.5 -111.5t104.5 -410.5q0 -295 -104 -406.5t-369 -111.5q-242 0 -341 100t-107 364h-256v-446h-172zM758 502q0 -213 59 -293t221 -80q166 0 229.5 80t65.5 293q-2 215 -65.5 293.5t-229.5 78.5 q-162 0 -221 -78.5t-59 -293.5z" />
<glyph unicode="&#x44f;" horiz-adv-x="1112" d="M82 0l90 299q35 111 195 127v8q-121 16 -174.5 85t-53.5 194q0 147 83 221t288 74q293 0 440 -15v-993h-170v369h-268q-145 0 -174 -103l-76 -266h-180zM309 688q0 -104 44 -146t167 -42h260v366q-31 0 -120 1t-146 1q-121 0 -163 -40t-42 -140z" />
<glyph unicode="&#x451;" horiz-adv-x="1105" d="M115 502q0 289 106.5 404.5t349.5 115.5q223 0 325.5 -81t104.5 -245q1 -282 -237 -282h-465q14 -172 84 -231.5t229 -59.5q172 0 349 24l16 -116q-131 -55 -387 -56q-258 0 -366.5 120t-108.5 407zM297 549h422q111 0 106 147q0 96 -55 137t-190 41q-158 0 -219.5 -69.5 t-63.5 -255.5zM317 1251v113q0 49 48 49h59q47 0 47 -49v-113q0 -49 -47 -49h-59q-47 0 -48 49zM680 1251v113q0 49 49 49h57q49 0 50 -49v-113q-1 -49 -50 -49h-57q-49 0 -49 49z" />
<glyph unicode="&#x452;" horiz-adv-x="1198" d="M55 1012v100h154v322h176v-322h381v-100h-381v-172q0 -90 -10 -176q229 160 438 159q272 0 272 -274v-549h-174v502q0 90 -40 128t-134 38q-137 0 -354 -133v-535h-174v1012h-154z" />
<glyph unicode="&#x453;" horiz-adv-x="946" d="M158 0v784q0 217 221 217q358 0 522 -16l-6 -123h-444q-63 0 -92 -29.5t-29 -93.5v-739h-172zM414 1202l352 301l100 -133l-393 -248z" />
<glyph unicode="&#x454;" horiz-adv-x="1038" d="M115 494q0 289 109.5 402.5t379.5 113.5q215 0 338 -35l-16 -121q-178 10 -322 10q-160 0 -229.5 -62.5t-79.5 -228.5h508v-131h-510q8 -180 75.5 -247.5t235.5 -67.5q160 0 332 14l16 -123q-133 -39 -348 -38q-270 0 -379.5 114.5t-109.5 399.5z" />
<glyph unicode="&#x455;" horiz-adv-x="1046" d="M106 748q0 166 87.5 222t302.5 52q238 -4 417 -31l-12 -127q-317 10 -381 10q-152 2 -199 -18t-47 -108q0 -72 32 -98.5t114 -45.5l291 -65q123 -31 177 -91.5t54 -183.5q0 -174 -96 -230.5t-330 -56.5q-209 0 -389 29l12 127q172 -10 342 -8q174 0 233.5 26.5 t59.5 112.5q0 68 -36 93.5t-120 45.5l-286 66q-123 29 -174.5 92.5t-51.5 186.5z" />
<glyph unicode="&#x456;" horiz-adv-x="514" d="M164 1251v117q0 53 53 53h82q51 0 51 -53v-117q0 -53 -51 -53h-82q-53 0 -53 53zM170 0v997h174v-997h-174z" />
<glyph unicode="&#x457;" horiz-adv-x="514" d="M-2 1251v113q0 49 47 49h59q47 0 48 -49v-113q0 -49 -48 -49h-59q-47 0 -47 49zM170 0v997h174v-997h-174zM360 1251v113q1 49 50 49h57q49 0 49 -49v-113q0 -49 -49 -49h-57q-49 0 -50 49z" />
<glyph unicode="&#x458;" horiz-adv-x="516" d="M57 -340q113 139 113 315v1022h176v-1022q0 -119 -51 -221t-141 -170zM166 1251v117q0 53 51 53h82q53 0 53 -53v-117q0 -53 -53 -53h-82q-51 0 -51 53z" />
<glyph unicode="&#x459;" horiz-adv-x="1644" d="M57 113q117 45 162 131q43 82 60.5 179t48.5 374q18 201 229 200h381v-381h223q225 0 309 -68.5t84 -246.5q0 -184 -86 -248.5t-294 -64.5q-250 0 -402 12v864h-168q-57 0 -83.5 -22.5t-33.5 -75.5q-27 -246 -47 -359.5t-61 -205.5q-82 -207 -307 -207zM938 127l209 -2 q133 0 182 35t49 147q0 102 -46 142t-171 40h-223v-362z" />
<glyph unicode="&#x45a;" horiz-adv-x="1658" d="M164 0v997h160v-385h462v385h164v-383h228q225 0 309 -67.5t84 -245.5q0 -180 -83 -246.5t-284 -66.5q-262 0 -418 12v487h-462v-487h-160zM950 127l228 -2q123 0 170 37t47 145q0 102 -45 141t-172 39h-228v-360z" />
<glyph unicode="&#x45b;" horiz-adv-x="1198" d="M55 1012v100h154v322h176v-322h381v-100h-381v-172q0 -90 -10 -176q229 160 438 159q268 0 272 -274v-574q0 -119 -51 -221t-141 -170l-96 76q115 141 114 315v527q0 90 -40 128t-134 38q-137 0 -354 -133v-535h-174v1012h-154z" />
<glyph unicode="&#x45c;" horiz-adv-x="1097" d="M162 0v997h174v-297q0 -53 -10 -114h139q72 0 123 24.5t93 87t68.5 122t69.5 177.5h180q-25 -68 -36 -95.5t-32.5 -80.5t-33.5 -74.5t-32.5 -60.5t-37 -55.5t-41 -40t-48 -34.5t-54.5 -20.5t-66 -13.5v-6q55 -4 98.5 -18.5t80.5 -49t61.5 -65.5t57 -101.5t52 -121.5 t60.5 -160h-182q-35 90 -49.5 126t-42 99.5t-44 86t-44 58.5t-53 47t-60.5 22.5t-78 11.5h-10h-137q8 -66 8 -97v-354h-174zM438 1202l353 301l100 -133l-393 -248z" />
<glyph unicode="&#x45d;" horiz-adv-x="1202" d="M162 0v997h157v-661q0 -59 -6 -133h4q33 68 72 114l508 680h141v-997h-157v662q0 25 3 72.5t3 60.5h-4q-23 -55 -70 -117l-508 -678h-143zM242 1370l100 133l352 -301l-59 -80z" />
<glyph unicode="&#x45e;" horiz-adv-x="1089" d="M41 997h186l265 -743q23 -68 36 -121h29q14 41 41 121l262 743h187l-398 -1052q-80 -209 -188 -291q-131 -98 -371 -66l16 121q162 -8 240 45q84 59 139 203l19 43h-39q-47 0 -64 45zM236 1440h133q0 -88 46 -136.5t130 -48.5q82 0 127 48.5t45 136.5h133 q8 -121 -76 -201t-229 -80q-147 0 -232.5 80t-76.5 201z" />
<glyph unicode="&#x45f;" horiz-adv-x="1187" d="M164 0v997h174v-858h512v858h174v-997h-358l-15 -338h-116l-17 338h-354z" />
<glyph unicode="&#x490;" horiz-adv-x="1071" d="M174 0v1149q0 117 72.5 191.5t185.5 74.5q309 0 459 -12l20 321h117v-338l-8 -124h-528q-74 0 -107 -34t-33 -112v-1116h-178z" />
<glyph unicode="&#x491;" horiz-adv-x="950" d="M158 0v784q0 217 221 217q264 0 391 -6l18 301h117v-311l-8 -123h-446q-61 2 -90 -27.5t-29 -95.5v-739h-174z" />
<glyph unicode="&#x4b0;" horiz-adv-x="1187" d="M37 1413h190l297 -596q10 -20 66 -160h14q39 111 64 158l297 598h188l-432 -850h270v-106h-305v-457h-180v457h-307v106h272z" />
<glyph unicode="&#x4b1;" horiz-adv-x="1196" d="M39 997h190l297 -591q16 -35 64 -158h16q47 123 64 158l297 591h190l-434 -845h272v-111h-307v-453h-178v453h-309v111h274z" />
<glyph unicode="&#x4b6;" horiz-adv-x="1337" d="M123 834v579h182v-543q-2 -104 46 -151t157 -47q197 0 416 108v633h182v-1288h166v-434h-123l-19 309h-206v637q-233 -123 -475 -123q-166 0 -246 79t-80 241z" />
<glyph unicode="&#x4b7;" horiz-adv-x="1138" d="M113 565v432h172v-374q0 -74 30.5 -104t104.5 -30q166 0 332 70v438h172v-858h139v-434h-117l-16 295h-178v420q-205 -74 -390 -74q-250 0 -249 219z" />
<glyph unicode="&#x4ba;" horiz-adv-x="1282" d="M178 0v1413h180v-635q229 121 478 121q164 0 243.5 -79t79.5 -240v-580h-180v543q2 104 -46 151t-159 47q-201 0 -416 -108v-633h-180z" />
<glyph unicode="&#x4c0;" horiz-adv-x="538" d="M180 0v1413h178v-1413h-178z" />
<glyph unicode="&#x2000;" horiz-adv-x="936" />
<glyph unicode="&#x2001;" horiz-adv-x="1872" />
<glyph unicode="&#x2002;" horiz-adv-x="936" />
<glyph unicode="&#x2003;" horiz-adv-x="1872" />
<glyph unicode="&#x2004;" horiz-adv-x="624" />
<glyph unicode="&#x2005;" horiz-adv-x="468" />
<glyph unicode="&#x2006;" horiz-adv-x="312" />
<glyph unicode="&#x2007;" horiz-adv-x="312" />
<glyph unicode="&#x2008;" horiz-adv-x="234" />
<glyph unicode="&#x2009;" horiz-adv-x="374" />
<glyph unicode="&#x200a;" horiz-adv-x="104" />
<glyph unicode="&#x2010;" horiz-adv-x="919" d="M147 451v133h625v-133h-625z" />
<glyph unicode="&#x2011;" horiz-adv-x="919" d="M147 451v133h625v-133h-625z" />
<glyph unicode="&#x2012;" horiz-adv-x="919" d="M147 451v133h625v-133h-625z" />
<glyph unicode="&#x2013;" horiz-adv-x="1212" d="M147 451v133h918v-133h-918z" />
<glyph unicode="&#x2014;" horiz-adv-x="1835" d="M147 451v133h1541v-133h-1541z" />
<glyph unicode="&#x2018;" horiz-adv-x="444" d="M133 1077v123q2 158 72 295l82 -22q-20 -111 -21 -230q51 0 47 -53v-113q-2 -61 -65 -61h-51q-35 0 -49.5 13t-14.5 48z" />
<glyph unicode="&#x2019;" horiz-adv-x="438" d="M129 1307v112q3 62 66 62h51q35 0 49 -13.5t14 -48.5v-123q-2 -160 -71 -292l-82 20q20 111 20 229q-51 0 -47 54z" />
<glyph unicode="&#x201a;" horiz-adv-x="466" d="M143 53v113q2 61 68 61h51q35 0 49.5 -13t14.5 -48v-121q-2 -158 -72 -295l-84 23q20 111 20 229q-51 0 -47 51z" />
<glyph unicode="&#x201c;" horiz-adv-x="755" d="M133 1077v123q2 158 72 295l82 -22q-20 -111 -21 -230q51 0 47 -53v-113q-2 -61 -65 -61h-51q-35 0 -49.5 13t-14.5 48zM446 1077v123q2 162 70 295l84 -22q-20 -111 -20 -230q51 0 47 -53v-113q-2 -61 -68 -61h-49q-35 0 -49.5 13t-14.5 48z" />
<glyph unicode="&#x201d;" horiz-adv-x="751" d="M129 1307v112q3 62 66 62h51q35 0 49 -13.5t14 -48.5v-123q-2 -160 -71 -292l-82 20q20 111 20 229q-51 0 -47 54zM440 1307v112q2 62 68 62h51q35 0 48.5 -13.5t13.5 -48.5v-123q-4 -164 -70 -292l-82 20q20 129 20 229q-49 0 -49 54z" />
<glyph unicode="&#x201e;" horiz-adv-x="780" d="M143 53v113q3 61 66 61h51q35 0 49.5 -13t14.5 -48v-121q-2 -158 -72 -295l-82 23q20 111 20 229q-51 0 -47 51zM455 53v113q2 33 17 47t50 14h51q35 0 48.5 -13t13.5 -48v-121q-2 -162 -70 -295l-82 23q20 111 21 229q-49 0 -49 51z" />
<glyph unicode="&#x2020;" horiz-adv-x="927" d="M88 844v153h266v-133zM385 1415h158l-6 -428v-1212h-144v1212zM573 864v133h269v-153z" />
<glyph unicode="&#x2021;" horiz-adv-x="1005" d="M125 193v153l268 -20v-133h-268zM125 844v153h268v-133zM422 -225l8 420v798l-8 422h160l-9 -422v-798l9 -420h-160zM612 193v133l267 20v-153h-267zM612 864v133h267v-153z" />
<glyph unicode="&#x2022;" horiz-adv-x="743" d="M186 539v24q0 96 38 133t138 37h25q96 0 133 -37t37 -133v-24q0 -100 -37 -138.5t-133 -38.5h-25q-100 0 -138 38t-38 139z" />
<glyph unicode="&#x2026;" horiz-adv-x="1730" d="M135 66v110q0 37 14.5 51.5t49.5 14.5h59q35 0 49.5 -14.5t14.5 -51.5v-110q0 -37 -14.5 -51.5t-49.5 -14.5h-59q-35 0 -49.5 14.5t-14.5 51.5zM766 66v110q0 37 14 51.5t51 14.5h58q35 0 49 -14.5t14 -51.5v-110q0 -37 -14 -51.5t-49 -14.5h-58q-37 0 -51 14.5t-14 51.5 zM1397 66v110q0 37 14 51.5t51 14.5h58q35 0 50 -14.5t15 -51.5v-110q0 -37 -15.5 -51.5t-49.5 -14.5h-58q-37 0 -51 14.5t-14 51.5z" />
<glyph unicode="&#x202f;" horiz-adv-x="374" />
<glyph unicode="&#x2030;" horiz-adv-x="2594" d="M96 1020q0 227 74 323.5t254 96.5q182 0 256 -96.5t74 -323.5t-74 -323.5t-256 -96.5q-180 0 -254 96.5t-74 323.5zM229 1020q0 -174 42 -241.5t153 -67.5t152.5 67.5t41.5 241.5t-41.5 241.5t-152.5 67.5t-153 -67.5t-42 -241.5zM393 0l916 1413h123l-916 -1413h-123z M1077 401q0 225 74 321.5t254 96.5t254 -96t74 -322q0 -227 -74 -323t-254 -96t-254 96t-74 323zM1210 401q-2 -174 40 -242.5t152.5 -68.5t153.5 68.5t43 242.5q0 172 -43 240t-153.5 68t-152.5 -67t-40 -241zM1837 401q0 225 74 321.5t254 96.5q182 0 255.5 -96t73.5 -322 q0 -227 -73.5 -323t-255.5 -96q-180 0 -254 96t-74 323zM1972 401q0 -174 41 -242.5t151.5 -68.5t152.5 67.5t42 243.5q0 174 -42 241t-152.5 67t-151.5 -67t-41 -241z" />
<glyph unicode="&#x2039;" horiz-adv-x="583" d="M74 494v41l327 405l93 -61l-258 -365l260 -373l-93 -61z" />
<glyph unicode="&#x203a;" horiz-adv-x="587" d="M88 141l260 373l-258 365l90 61l330 -405v-41l-332 -414z" />
<glyph unicode="&#x2044;" horiz-adv-x="327" d="M-356 0l915 1413h125l-915 -1413h-125z" />
<glyph unicode="&#x205f;" horiz-adv-x="468" />
<glyph unicode="&#x20ac;" horiz-adv-x="1308" d="M109 535v108h167v64q0 66 3 96h-170v108h178q31 266 161 396.5t392 130.5q193 0 340 -41l-21 -140q-156 27 -330 19q-160 -6 -243.5 -94t-110.5 -271h522l-14 -108h-518q0 -16 -1 -49t-1 -49l2 -62h450l-14 -108h-430q23 -201 107 -297.5t251 -100.5q197 -6 355 25 l18 -139q-158 -47 -362 -48q-268 0 -399.5 137.5t-157.5 422.5h-174z" />
<glyph unicode="&#x2122;" horiz-adv-x="1974" d="M137 1321v104h664v-104h-269v-674h-126v674h-269zM901 647l33 729q4 49 49 49h129q39 0 51 -41l156 -450q6 -20 17.5 -60t13.5 -49h22q6 18 16.5 55.5t16.5 55.5l154 448q12 41 49 41h135q45 0 49 -49l31 -729h-117l-33 682h-22l-189 -549q-12 -41 -53 -41h-96 q-37 0 -51 41l-189 549h-24l-31 -682h-117z" />
<glyph unicode="&#x25ca;" horiz-adv-x="1179" d="M74 692q-10 16 0 33l501 692q15 23 33 0l498 -692q10 -16 0 -33l-498 -696q-18 -23 -33 0zM217 709l375 -539l373 539l-373 534z" />
<glyph unicode="&#x25fc;" horiz-adv-x="993" d="M0 0v993h993v-993h-993z" />
<glyph unicode="&#xfb01;" horiz-adv-x="1243" d="M57 860v127l181 8v160q0 156 67.5 234.5t222.5 78.5q135 0 234 -14v-129h-172q-98 0 -138 -42t-40 -146v-140h661v-997h-172v860h-489v-860h-174v860h-181zM893 1251v117q0 53 51 53h82q53 0 53 -53v-117q0 -53 -53 -53h-82q-51 0 -51 53z" />
<glyph unicode="&#xfb02;" horiz-adv-x="1370" d="M57 860v127l181 8v160q0 158 67.5 236.5t220.5 76.5q422 0 572 -24v-1190q0 -135 135 -135h98l19 -111q-55 -27 -183 -26q-113 0 -178 61t-65 172v1112h-336q-98 2 -137 -41t-39 -149v-140h299v-137h-299v-860h-174v860h-181z" />
</font>
</defs>
</svg>
